<mxfile host="Electron" modified="2024-04-20T11:43:55.496Z" agent="Mozilla/5.0 (Macintosh; Intel Mac OS X 10_15_7) AppleWebKit/537.36 (KHTML, like Gecko) draw.io/24.1.0 Chrome/120.0.6099.109 Electron/28.1.0 Safari/537.36" etag="BJ67CUAquCvyfd2unZu2" version="24.1.0" type="device">
  <diagram name="Page-1" id="MKA3F2jgvQBVE9RuguRx">
    <mxGraphModel dx="1004" dy="709" grid="1" gridSize="10" guides="1" tooltips="1" connect="1" arrows="1" fold="1" page="1" pageScale="1" pageWidth="850" pageHeight="1100" math="0" shadow="0">
      <root>
        <mxCell id="0" />
        <mxCell id="1" parent="0" />
        <mxCell id="DaTUymLXalBBTl9Ut80q-72" style="edgeStyle=orthogonalEdgeStyle;rounded=0;orthogonalLoop=1;jettySize=auto;html=1;entryX=0.5;entryY=0;entryDx=0;entryDy=0;" parent="1" source="SD2X1IwTfrn5oaOJRfZy-9" target="DaTUymLXalBBTl9Ut80q-68" edge="1">
          <mxGeometry relative="1" as="geometry" />
        </mxCell>
        <mxCell id="SD2X1IwTfrn5oaOJRfZy-9" value="" style="rounded=1;whiteSpace=wrap;html=1;fillColor=#dae8fc;strokeColor=#6c8ebf;" parent="1" vertex="1">
          <mxGeometry x="235" y="290" width="520" height="120" as="geometry" />
        </mxCell>
        <mxCell id="SD2X1IwTfrn5oaOJRfZy-11" value="&lt;b style=&quot;font-size: 13px;&quot;&gt;Fine-tuned LLM&lt;/b&gt;" style="text;html=1;align=center;verticalAlign=middle;whiteSpace=wrap;rounded=0;fontSize=13;" parent="1" vertex="1">
          <mxGeometry x="440" y="300" width="120" height="30" as="geometry" />
        </mxCell>
        <mxCell id="DaTUymLXalBBTl9Ut80q-45" value="" style="group;fillColor=none;fontColor=#333333;strokeColor=none;" parent="1" vertex="1" connectable="0">
          <mxGeometry x="30" y="280" width="150" height="40" as="geometry" />
        </mxCell>
        <mxCell id="SD2X1IwTfrn5oaOJRfZy-1" value="" style="rounded=1;whiteSpace=wrap;html=1;strokeColor=none;fillColor=#E6E6E6;fontColor=#333333;" parent="DaTUymLXalBBTl9Ut80q-45" vertex="1">
          <mxGeometry width="150" height="40" as="geometry" />
        </mxCell>
        <mxCell id="DaTUymLXalBBTl9Ut80q-41" value="" style="shape=image;verticalLabelPosition=bottom;labelBackgroundColor=default;verticalAlign=top;aspect=fixed;imageAspect=0;image=data:image/svg+xml,PHN2ZyB4bWxucz0iaHR0cDovL3d3dy53My5vcmcvMjAwMC9zdmciIGNsYXNzPSJsdWNpZGUgbHVjaWRlLW1lc3NhZ2UtY2lyY2xlLXF1ZXN0aW9uIiBzdHJva2UtbGluZWpvaW49InJvdW5kIiBzdHJva2UtbGluZWNhcD0icm91bmQiIHN0cm9rZS13aWR0aD0iMS4yNSIgc3Ryb2tlPSJjdXJyZW50Q29sb3IiIGZpbGw9Im5vbmUiIHZpZXdCb3g9IjAgMCAyNCAyNCIgaGVpZ2h0PSIyNCIgd2lkdGg9IjI0Ij48cGF0aCBkPSJNNy45IDIwQTkgOSAwIDEgMCA0IDE2LjFMMiAyMloiLz48cGF0aCBkPSJNOS4wOSA5YTMgMyAwIDAgMSA1LjgzIDFjMCAyLTMgMy0zIDMiLz48cGF0aCBkPSJNMTIgMTdoLjAxIi8+PC9zdmc+;" parent="DaTUymLXalBBTl9Ut80q-45" vertex="1">
          <mxGeometry x="12" y="11" width="18" height="18" as="geometry" />
        </mxCell>
        <mxCell id="DaTUymLXalBBTl9Ut80q-44" value="ToM Problem" style="text;html=1;align=center;verticalAlign=middle;whiteSpace=wrap;rounded=0;" parent="DaTUymLXalBBTl9Ut80q-45" vertex="1">
          <mxGeometry x="25" y="5.333333333333332" width="90" height="30" as="geometry" />
        </mxCell>
        <mxCell id="DaTUymLXalBBTl9Ut80q-46" value="" style="group" parent="1" vertex="1" connectable="0">
          <mxGeometry x="30" y="380" width="150" height="40" as="geometry" />
        </mxCell>
        <mxCell id="DaTUymLXalBBTl9Ut80q-64" value="" style="group" parent="DaTUymLXalBBTl9Ut80q-46" vertex="1" connectable="0">
          <mxGeometry width="155" height="40" as="geometry" />
        </mxCell>
        <mxCell id="SD2X1IwTfrn5oaOJRfZy-2" value="" style="rounded=1;whiteSpace=wrap;html=1;strokeColor=none;fillColor=#E6E6E6;" parent="DaTUymLXalBBTl9Ut80q-64" vertex="1">
          <mxGeometry width="150" height="40" as="geometry" />
        </mxCell>
        <mxCell id="DaTUymLXalBBTl9Ut80q-42" value="" style="shape=image;verticalLabelPosition=bottom;labelBackgroundColor=default;verticalAlign=top;aspect=fixed;imageAspect=0;image=data:image/svg+xml,PHN2ZyB4bWxucz0iaHR0cDovL3d3dy53My5vcmcvMjAwMC9zdmciIGNsYXNzPSJsdWNpZGUgbHVjaWRlLWZpbGUtdGV4dCIgc3Ryb2tlLWxpbmVqb2luPSJyb3VuZCIgc3Ryb2tlLWxpbmVjYXA9InJvdW5kIiBzdHJva2Utd2lkdGg9IjEiIHN0cm9rZT0iY3VycmVudENvbG9yIiBmaWxsPSJub25lIiB2aWV3Qm94PSIwIDAgMjQgMjQiIGhlaWdodD0iMjQiIHdpZHRoPSIyNCI+PHBhdGggZD0iTTE1IDJINmEyIDIgMCAwIDAtMiAydjE2YTIgMiAwIDAgMCAyIDJoMTJhMiAyIDAgMCAwIDItMlY3WiIvPjxwYXRoIGQ9Ik0xNCAydjRhMiAyIDAgMCAwIDIgMmg0Ii8+PHBhdGggZD0iTTEwIDlIOCIvPjxwYXRoIGQ9Ik0xNiAxM0g4Ii8+PHBhdGggZD0iTTE2IDE3SDgiLz48L3N2Zz4=;" parent="DaTUymLXalBBTl9Ut80q-64" vertex="1">
          <mxGeometry x="12" y="11" width="18" height="18" as="geometry" />
        </mxCell>
        <mxCell id="DaTUymLXalBBTl9Ut80q-43" value="In-Context Example" style="text;html=1;align=center;verticalAlign=middle;whiteSpace=wrap;rounded=0;horizontal=1;" parent="DaTUymLXalBBTl9Ut80q-64" vertex="1">
          <mxGeometry x="30" y="15" width="114" height="10" as="geometry" />
        </mxCell>
        <mxCell id="DaTUymLXalBBTl9Ut80q-48" value="" style="group;flipH=1;" parent="1" vertex="1" connectable="0">
          <mxGeometry x="260" y="339.62" width="470" height="40.76999999999998" as="geometry" />
        </mxCell>
        <mxCell id="DaTUymLXalBBTl9Ut80q-17" value="" style="group" parent="DaTUymLXalBBTl9Ut80q-48" vertex="1" connectable="0">
          <mxGeometry y="0.37999999999999545" width="120" height="40" as="geometry" />
        </mxCell>
        <mxCell id="DaTUymLXalBBTl9Ut80q-15" value="" style="rounded=1;whiteSpace=wrap;html=1;fillColor=#d5e8d4;strokeColor=#82b366;" parent="DaTUymLXalBBTl9Ut80q-17" vertex="1">
          <mxGeometry width="120" height="40" as="geometry" />
        </mxCell>
        <mxCell id="DaTUymLXalBBTl9Ut80q-13" value="" style="shape=image;verticalLabelPosition=bottom;labelBackgroundColor=default;verticalAlign=top;aspect=fixed;imageAspect=0;image=data:image/svg+xml,PHN2ZyB4bWxucz0iaHR0cDovL3d3dy53My5vcmcvMjAwMC9zdmciIHN0cm9rZS1taXRlcmxpbWl0PSIyIiBzdHJva2UtbGluZWpvaW49InJvdW5kIiBjbGlwLXJ1bGU9ImV2ZW5vZGQiIGZpbGwtcnVsZT0iZXZlbm9kZCIgdmlld0JveD0iMCAwIDUxMiA1MTIiPjxwYXRoIGZpbGwtcnVsZT0ibm9uemVybyIgZD0iTTQ3NC4xMjMgMjA5LjgxYzExLjUyNS0zNC41NzcgNy41NjktNzIuNDIzLTEwLjgzOC0xMDMuOTA0LTI3LjY5Ni00OC4xNjgtODMuNDMzLTcyLjk0LTEzNy43OTQtNjEuNDE0YTEyNy4xNCAxMjcuMTQgMCAwMC05NS40NzUtNDIuNDljLTU1LjU2NCAwLTEwNC45MzYgMzUuNzgxLTEyMi4xMzkgODguNTkzLTM1Ljc4MSA3LjM5Ny02Ni41NzQgMjkuNzYtODQuNjM3IDYxLjQxNC0yNy44NjggNDguMTY3LTIxLjUwMyAxMDguNzIgMTUuODI2IDE1MC4wMDctMTEuNTI1IDM0LjU3OC03LjU2OSA3Mi40MjQgMTAuODM4IDEwMy43MzMgMjcuNjk2IDQ4LjM0IDgzLjQzMyA3My4xMTEgMTM3Ljk2NiA2MS41ODUgMjQuMDg0IDI3LjE4IDU4LjgzMyA0Mi44MzUgOTUuMzAzIDQyLjY2MyA1NS41NjQgMCAxMDQuOTM2LTM1Ljc4MiAxMjIuMTM5LTg4LjU5NCAzNS43ODItNy4zOTcgNjYuNTc0LTI5Ljc2IDg0LjQ2NS02MS40MTMgMjguMDQtNDguMTY4IDIxLjY3Ni0xMDguNzIyLTE1LjY1NC0xNTAuMDA4di0uMTcyem0tMzkuNTY3LTg3LjIxOGMxMS4wMSAxOS4yNjcgMTUuMTM5IDQxLjgwMyAxMS4zNTQgNjMuNjUtLjY4OC0uNTE2LTIuMDY0LTEuMjA0LTIuOTI0LTEuNzJsLTEwMS4xNTItNTguNDlhMTYuOTY1IDE2Ljk2NSAwIDAwLTE2LjY4NyAwTDIwNi42MjEgMTk0LjV2LTUwLjIzMmw5Ny44ODMtNTYuNTk3YzQ1LjU4Ny0yNi4zMiAxMDMuNzMyLTEwLjY2NiAxMzAuMDUyIDM0LjkyMXptLTIyNy45MzUgMTA0LjQybDQ5Ljg4OC0yOC45IDQ5Ljg4NyAyOC45djU3LjYzbC00OS44ODcgMjguOS00OS44ODgtMjguOXYtNTcuNjN6bTIzLjIyMy0xOTEuODFjMjIuMzY0IDAgNDMuODY3IDcuNzQyIDYxLjA3IDIyLjAyLS42ODguMzQ0LTIuMDY0IDEuMjA0LTMuMDk3IDEuNzJMMTg2LjY2NiAxMTcuMjZjLTUuMTYxIDIuOTI1LTguMjU4IDguNDMtOC4yNTggMTQuNDV2MTM2LjkzNGwtNDMuNTIzLTI1LjExNlYxMzAuMzMzYzAtNTIuNjQgNDIuNDkxLTk1LjEzIDk1LjEzMS05NS4zMDJsLS4xNzIuMTcyek01Mi4xNCAxNjguNjk3YzExLjE4Mi0xOS4yNjggMjguNTU3LTM0LjA2MiA0OS41NDQtNDEuODAzVjI0Ny4xNGMwIDYuMDIgMy4wOTcgMTEuMzU0IDguMjU4IDE0LjQ1bDExOC4zNTQgNjguMjk1LTQzLjY5NSAyNS4yODgtOTcuNzExLTU2LjQyNWMtNDUuNDE1LTI2LjMyLTYxLjA3LTg0LjQ2NS0zNC43NS0xMzAuMDUyem0yNi42NjUgMjIwLjcxYy0xMS4xODItMTkuMDk1LTE1LjEzOS00MS44MDItMTEuMzU0LTYzLjY1LjY4OC41MTYgMi4wNjQgMS4yMDQgMi45MjQgMS43MmwxMDEuMTUyIDU4LjQ5YTE2Ljk2NSAxNi45NjUgMCAwMDE2LjY4NyAwbDExOC4zNTQtNjguNDY3djUwLjIzMmwtOTcuODgzIDU2LjQyNWMtNDUuNTg3IDI2LjE0OC0xMDMuNzMyIDEwLjY2NS0xMzAuMDUyLTM0Ljc1aC4xNzJ6bTIwNC41NCA4Ny4zOWMtMjIuMTkyIDAtNDMuODY3LTcuNzQxLTYwLjg5OC0yMi4wMmE2Mi40MzkgNjIuNDM5IDAgMDAzLjA5Ny0xLjcybDEwMS4xNTItNTguMzE3YzUuMTYtMi45MjQgOC40MjktOC40MyA4LjI1Ny0xNC40NVYyNDMuNTI3bDQzLjUyMyAyNS4xMTZ2MTEzLjAyMmMwIDUyLjY0LTQyLjY2MyA5NS4zMDMtOTUuMTMxIDk1LjMwM3YtLjE3MnpNNDYxLjIyIDM0My4zMDNjLTExLjE4MiAxOS4yNjctMjguNzI5IDM0LjA2MS00OS41NDQgNDEuNjNWMjY0LjY4N2MwLTYuMDIxLTMuMDk3LTExLjUyNi04LjI1Ny0xNC40NUwyODQuODkzIDE4MS43N2w0My41MjMtMjUuMTE2IDk3Ljg4MyA1Ni40MjRjNDUuNTg3IDI2LjMyIDYxLjA3IDg0LjQ2NiAzNC43NSAxMzAuMDUzbC4xNzIuMTcyeiIvPjwvc3ZnPg==;" parent="DaTUymLXalBBTl9Ut80q-17" vertex="1">
          <mxGeometry x="13" y="10" width="20" height="20" as="geometry" />
        </mxCell>
        <mxCell id="DaTUymLXalBBTl9Ut80q-16" value="Base LLM" style="text;html=1;align=center;verticalAlign=middle;whiteSpace=wrap;rounded=0;" parent="DaTUymLXalBBTl9Ut80q-17" vertex="1">
          <mxGeometry x="40" y="10.00000000000001" width="60" height="20" as="geometry" />
        </mxCell>
        <mxCell id="DaTUymLXalBBTl9Ut80q-18" value="" style="group" parent="DaTUymLXalBBTl9Ut80q-48" vertex="1" connectable="0">
          <mxGeometry x="320" y="0.37999999999999545" width="150" height="40" as="geometry" />
        </mxCell>
        <mxCell id="DaTUymLXalBBTl9Ut80q-19" value="" style="rounded=1;whiteSpace=wrap;html=1;fillColor=#f8cecc;strokeColor=#b85450;" parent="DaTUymLXalBBTl9Ut80q-18" vertex="1">
          <mxGeometry width="150" height="40" as="geometry" />
        </mxCell>
        <mxCell id="DaTUymLXalBBTl9Ut80q-20" value="" style="shape=image;verticalLabelPosition=bottom;labelBackgroundColor=default;verticalAlign=top;aspect=fixed;imageAspect=0;image=data:image/svg+xml,PHN2ZyB4bWxucz0iaHR0cDovL3d3dy53My5vcmcvMjAwMC9zdmciIHN0cm9rZS1taXRlcmxpbWl0PSIyIiBzdHJva2UtbGluZWpvaW49InJvdW5kIiBjbGlwLXJ1bGU9ImV2ZW5vZGQiIGZpbGwtcnVsZT0iZXZlbm9kZCIgdmlld0JveD0iMCAwIDUxMiA1MTIiPjxwYXRoIGZpbGwtcnVsZT0ibm9uemVybyIgZD0iTTQ3NC4xMjMgMjA5LjgxYzExLjUyNS0zNC41NzcgNy41NjktNzIuNDIzLTEwLjgzOC0xMDMuOTA0LTI3LjY5Ni00OC4xNjgtODMuNDMzLTcyLjk0LTEzNy43OTQtNjEuNDE0YTEyNy4xNCAxMjcuMTQgMCAwMC05NS40NzUtNDIuNDljLTU1LjU2NCAwLTEwNC45MzYgMzUuNzgxLTEyMi4xMzkgODguNTkzLTM1Ljc4MSA3LjM5Ny02Ni41NzQgMjkuNzYtODQuNjM3IDYxLjQxNC0yNy44NjggNDguMTY3LTIxLjUwMyAxMDguNzIgMTUuODI2IDE1MC4wMDctMTEuNTI1IDM0LjU3OC03LjU2OSA3Mi40MjQgMTAuODM4IDEwMy43MzMgMjcuNjk2IDQ4LjM0IDgzLjQzMyA3My4xMTEgMTM3Ljk2NiA2MS41ODUgMjQuMDg0IDI3LjE4IDU4LjgzMyA0Mi44MzUgOTUuMzAzIDQyLjY2MyA1NS41NjQgMCAxMDQuOTM2LTM1Ljc4MiAxMjIuMTM5LTg4LjU5NCAzNS43ODItNy4zOTcgNjYuNTc0LTI5Ljc2IDg0LjQ2NS02MS40MTMgMjguMDQtNDguMTY4IDIxLjY3Ni0xMDguNzIyLTE1LjY1NC0xNTAuMDA4di0uMTcyem0tMzkuNTY3LTg3LjIxOGMxMS4wMSAxOS4yNjcgMTUuMTM5IDQxLjgwMyAxMS4zNTQgNjMuNjUtLjY4OC0uNTE2LTIuMDY0LTEuMjA0LTIuOTI0LTEuNzJsLTEwMS4xNTItNTguNDlhMTYuOTY1IDE2Ljk2NSAwIDAwLTE2LjY4NyAwTDIwNi42MjEgMTk0LjV2LTUwLjIzMmw5Ny44ODMtNTYuNTk3YzQ1LjU4Ny0yNi4zMiAxMDMuNzMyLTEwLjY2NiAxMzAuMDUyIDM0LjkyMXptLTIyNy45MzUgMTA0LjQybDQ5Ljg4OC0yOC45IDQ5Ljg4NyAyOC45djU3LjYzbC00OS44ODcgMjguOS00OS44ODgtMjguOXYtNTcuNjN6bTIzLjIyMy0xOTEuODFjMjIuMzY0IDAgNDMuODY3IDcuNzQyIDYxLjA3IDIyLjAyLS42ODguMzQ0LTIuMDY0IDEuMjA0LTMuMDk3IDEuNzJMMTg2LjY2NiAxMTcuMjZjLTUuMTYxIDIuOTI1LTguMjU4IDguNDMtOC4yNTggMTQuNDV2MTM2LjkzNGwtNDMuNTIzLTI1LjExNlYxMzAuMzMzYzAtNTIuNjQgNDIuNDkxLTk1LjEzIDk1LjEzMS05NS4zMDJsLS4xNzIuMTcyek01Mi4xNCAxNjguNjk3YzExLjE4Mi0xOS4yNjggMjguNTU3LTM0LjA2MiA0OS41NDQtNDEuODAzVjI0Ny4xNGMwIDYuMDIgMy4wOTcgMTEuMzU0IDguMjU4IDE0LjQ1bDExOC4zNTQgNjguMjk1LTQzLjY5NSAyNS4yODgtOTcuNzExLTU2LjQyNWMtNDUuNDE1LTI2LjMyLTYxLjA3LTg0LjQ2NS0zNC43NS0xMzAuMDUyem0yNi42NjUgMjIwLjcxYy0xMS4xODItMTkuMDk1LTE1LjEzOS00MS44MDItMTEuMzU0LTYzLjY1LjY4OC41MTYgMi4wNjQgMS4yMDQgMi45MjQgMS43MmwxMDEuMTUyIDU4LjQ5YTE2Ljk2NSAxNi45NjUgMCAwMDE2LjY4NyAwbDExOC4zNTQtNjguNDY3djUwLjIzMmwtOTcuODgzIDU2LjQyNWMtNDUuNTg3IDI2LjE0OC0xMDMuNzMyIDEwLjY2NS0xMzAuMDUyLTM0Ljc1aC4xNzJ6bTIwNC41NCA4Ny4zOWMtMjIuMTkyIDAtNDMuODY3LTcuNzQxLTYwLjg5OC0yMi4wMmE2Mi40MzkgNjIuNDM5IDAgMDAzLjA5Ny0xLjcybDEwMS4xNTItNTguMzE3YzUuMTYtMi45MjQgOC40MjktOC40MyA4LjI1Ny0xNC40NVYyNDMuNTI3bDQzLjUyMyAyNS4xMTZ2MTEzLjAyMmMwIDUyLjY0LTQyLjY2MyA5NS4zMDMtOTUuMTMxIDk1LjMwM3YtLjE3MnpNNDYxLjIyIDM0My4zMDNjLTExLjE4MiAxOS4yNjctMjguNzI5IDM0LjA2MS00OS41NDQgNDEuNjNWMjY0LjY4N2MwLTYuMDIxLTMuMDk3LTExLjUyNi04LjI1Ny0xNC40NUwyODQuODkzIDE4MS43N2w0My41MjMtMjUuMTE2IDk3Ljg4MyA1Ni40MjRjNDUuNTg3IDI2LjMyIDYxLjA3IDg0LjQ2NiAzNC43NSAxMzAuMDUzbC4xNzIuMTcyeiIvPjwvc3ZnPg==;" parent="DaTUymLXalBBTl9Ut80q-18" vertex="1">
          <mxGeometry x="13" y="10" width="20" height="20" as="geometry" />
        </mxCell>
        <mxCell id="DaTUymLXalBBTl9Ut80q-21" value="Fine-tuned LLM" style="text;html=1;align=center;verticalAlign=middle;whiteSpace=wrap;rounded=0;" parent="DaTUymLXalBBTl9Ut80q-18" vertex="1">
          <mxGeometry x="40" y="10" width="91.1735294117647" height="20" as="geometry" />
        </mxCell>
        <mxCell id="DaTUymLXalBBTl9Ut80q-60" style="edgeStyle=orthogonalEdgeStyle;rounded=0;orthogonalLoop=1;jettySize=auto;html=1;entryX=0;entryY=0.5;entryDx=0;entryDy=0;" parent="DaTUymLXalBBTl9Ut80q-48" source="DaTUymLXalBBTl9Ut80q-15" target="DaTUymLXalBBTl9Ut80q-19" edge="1">
          <mxGeometry relative="1" as="geometry" />
        </mxCell>
        <mxCell id="DaTUymLXalBBTl9Ut80q-26" value="" style="group" parent="DaTUymLXalBBTl9Ut80q-48" vertex="1" connectable="0">
          <mxGeometry x="160" width="122.81" height="40.76999999999998" as="geometry" />
        </mxCell>
        <mxCell id="DaTUymLXalBBTl9Ut80q-4" value="" style="rounded=1;whiteSpace=wrap;html=1;fillColor=#fff2cc;strokeColor=#d6b656;" parent="DaTUymLXalBBTl9Ut80q-26" vertex="1">
          <mxGeometry width="122.81" height="40" as="geometry" />
        </mxCell>
        <mxCell id="DaTUymLXalBBTl9Ut80q-25" value="NL2SF Data" style="text;html=1;align=center;verticalAlign=middle;whiteSpace=wrap;rounded=0;" parent="DaTUymLXalBBTl9Ut80q-26" vertex="1">
          <mxGeometry x="40" y="10" width="75" height="20" as="geometry" />
        </mxCell>
        <mxCell id="DaTUymLXalBBTl9Ut80q-52" value="" style="shape=image;verticalLabelPosition=bottom;labelBackgroundColor=default;verticalAlign=top;aspect=fixed;imageAspect=0;image=data:image/svg+xml,PHN2ZyB4bWxucz0iaHR0cDovL3d3dy53My5vcmcvMjAwMC9zdmciIGNsYXNzPSJsdWNpZGUgbHVjaWRlLWRhdGFiYXNlIiBzdHJva2UtbGluZWpvaW49InJvdW5kIiBzdHJva2UtbGluZWNhcD0icm91bmQiIHN0cm9rZS13aWR0aD0iMSIgc3Ryb2tlPSJjdXJyZW50Q29sb3IiIGZpbGw9Im5vbmUiIHZpZXdCb3g9IjAgMCAyNCAyNCIgaGVpZ2h0PSIyNCIgd2lkdGg9IjI0Ij48ZWxsaXBzZSByeT0iMyIgcng9IjkiIGN5PSI1IiBjeD0iMTIiLz48cGF0aCBkPSJNMyA1VjE5QTkgMyAwIDAgMCAyMSAxOVY1Ii8+PHBhdGggZD0iTTMgMTJBOSAzIDAgMCAwIDIxIDEyIi8+PC9zdmc+;" parent="DaTUymLXalBBTl9Ut80q-26" vertex="1">
          <mxGeometry x="13" y="8.389999999999986" width="24" height="24" as="geometry" />
        </mxCell>
        <mxCell id="DaTUymLXalBBTl9Ut80q-57" style="edgeStyle=orthogonalEdgeStyle;rounded=0;orthogonalLoop=1;jettySize=auto;html=1;entryX=0;entryY=0.5;entryDx=0;entryDy=0;" parent="1" source="SD2X1IwTfrn5oaOJRfZy-1" target="SD2X1IwTfrn5oaOJRfZy-9" edge="1">
          <mxGeometry relative="1" as="geometry">
            <Array as="points">
              <mxPoint x="210" y="300" />
              <mxPoint x="210" y="350" />
            </Array>
          </mxGeometry>
        </mxCell>
        <mxCell id="DaTUymLXalBBTl9Ut80q-63" value="" style="group" parent="1" vertex="1" connectable="0">
          <mxGeometry x="410" y="450" width="171.25" height="50" as="geometry" />
        </mxCell>
        <mxCell id="SD2X1IwTfrn5oaOJRfZy-17" value="" style="rounded=1;whiteSpace=wrap;html=1;fillColor=#fff2cc;strokeColor=#d6b656;" parent="DaTUymLXalBBTl9Ut80q-63" vertex="1">
          <mxGeometry width="171.25" height="50" as="geometry" />
        </mxCell>
        <mxCell id="DaTUymLXalBBTl9Ut80q-49" value="" style="shape=image;verticalLabelPosition=bottom;labelBackgroundColor=default;verticalAlign=top;aspect=fixed;imageAspect=0;image=data:image/svg+xml,PHN2ZyB4bWxucz0iaHR0cDovL3d3dy53My5vcmcvMjAwMC9zdmciIGNsYXNzPSJsdWNpZGUgbHVjaWRlLWNvZGUiIHN0cm9rZS1saW5lam9pbj0icm91bmQiIHN0cm9rZS1saW5lY2FwPSJyb3VuZCIgc3Ryb2tlLXdpZHRoPSIxIiBzdHJva2U9ImN1cnJlbnRDb2xvciIgZmlsbD0ibm9uZSIgdmlld0JveD0iMCAwIDI0IDI0IiBoZWlnaHQ9IjI0IiB3aWR0aD0iMjQiPjxwb2x5bGluZSBwb2ludHM9IjE2IDE4IDIyIDEyIDE2IDYiLz48cG9seWxpbmUgcG9pbnRzPSI4IDYgMiAxMiA4IDE4Ii8+PC9zdmc+;" parent="DaTUymLXalBBTl9Ut80q-63" vertex="1">
          <mxGeometry x="12.5" y="16" width="18" height="18" as="geometry" />
        </mxCell>
        <mxCell id="DaTUymLXalBBTl9Ut80q-50" value="&lt;span style=&quot;color: rgb(0, 0, 0); font-family: Helvetica; font-size: 12px; font-style: normal; font-variant-ligatures: normal; font-variant-caps: normal; font-weight: 400; letter-spacing: normal; orphans: 2; text-align: center; text-indent: 0px; text-transform: none; widows: 2; word-spacing: 0px; -webkit-text-stroke-width: 0px; white-space: normal; text-decoration-thickness: initial; text-decoration-style: initial; text-decoration-color: initial; float: none; display: inline !important;&quot;&gt;Symbolic Formulation&lt;/span&gt;" style="text;html=1;align=center;verticalAlign=middle;whiteSpace=wrap;rounded=0;" parent="DaTUymLXalBBTl9Ut80q-63" vertex="1">
          <mxGeometry x="25" y="10" width="140" height="30" as="geometry" />
        </mxCell>
        <mxCell id="DaTUymLXalBBTl9Ut80q-65" style="edgeStyle=orthogonalEdgeStyle;rounded=0;orthogonalLoop=1;jettySize=auto;html=1;entryX=0;entryY=0.5;entryDx=0;entryDy=0;" parent="1" source="SD2X1IwTfrn5oaOJRfZy-2" target="SD2X1IwTfrn5oaOJRfZy-9" edge="1">
          <mxGeometry relative="1" as="geometry">
            <Array as="points">
              <mxPoint x="210" y="400" />
              <mxPoint x="210" y="350" />
            </Array>
          </mxGeometry>
        </mxCell>
        <mxCell id="DaTUymLXalBBTl9Ut80q-67" value="" style="group" parent="1" vertex="1" connectable="0">
          <mxGeometry x="400" y="540" width="190" height="50" as="geometry" />
        </mxCell>
        <mxCell id="DaTUymLXalBBTl9Ut80q-71" value="" style="group" parent="DaTUymLXalBBTl9Ut80q-67" vertex="1" connectable="0">
          <mxGeometry width="190" height="50" as="geometry" />
        </mxCell>
        <mxCell id="DaTUymLXalBBTl9Ut80q-68" value="" style="rounded=1;whiteSpace=wrap;html=1;fillColor=#ffe6cc;strokeColor=#d79b00;" parent="DaTUymLXalBBTl9Ut80q-71" vertex="1">
          <mxGeometry width="190" height="50" as="geometry" />
        </mxCell>
        <mxCell id="DaTUymLXalBBTl9Ut80q-70" value="&lt;span style=&quot;color: rgb(0, 0, 0); font-family: Helvetica; font-size: 12px; font-style: normal; font-variant-ligatures: normal; font-variant-caps: normal; font-weight: 400; letter-spacing: normal; orphans: 2; text-align: center; text-indent: 0px; text-transform: none; widows: 2; word-spacing: 0px; -webkit-text-stroke-width: 0px; white-space: normal; text-decoration-thickness: initial; text-decoration-style: initial; text-decoration-color: initial; float: none; display: inline !important;&quot;&gt;SMCDEL Model Checker&lt;/span&gt;" style="text;html=1;align=center;verticalAlign=middle;whiteSpace=wrap;rounded=0;" parent="DaTUymLXalBBTl9Ut80q-71" vertex="1">
          <mxGeometry x="27" y="10" width="155.32846715328466" height="30" as="geometry" />
        </mxCell>
        <mxCell id="DaTUymLXalBBTl9Ut80q-76" value="" style="shape=image;verticalLabelPosition=bottom;labelBackgroundColor=default;verticalAlign=top;aspect=fixed;imageAspect=0;image=data:image/svg+xml,PHN2ZyB4bWxucz0iaHR0cDovL3d3dy53My5vcmcvMjAwMC9zdmciIGNsYXNzPSJsdWNpZGUgbHVjaWRlLWNvZyIgc3Ryb2tlLWxpbmVqb2luPSJyb3VuZCIgc3Ryb2tlLWxpbmVjYXA9InJvdW5kIiBzdHJva2Utd2lkdGg9IjEiIHN0cm9rZT0iY3VycmVudENvbG9yIiBmaWxsPSJub25lIiB2aWV3Qm94PSIwIDAgMjQgMjQiIGhlaWdodD0iMjQiIHdpZHRoPSIyNCI+PHBhdGggZD0iTTEyIDIwYTggOCAwIDEgMCAwLTE2IDggOCAwIDAgMCAwIDE2WiIvPjxwYXRoIGQ9Ik0xMiAxNGEyIDIgMCAxIDAgMC00IDIgMiAwIDAgMCAwIDRaIi8+PHBhdGggZD0iTTEyIDJ2MiIvPjxwYXRoIGQ9Ik0xMiAyMnYtMiIvPjxwYXRoIGQ9Im0xNyAyMC42Ni0xLTEuNzMiLz48cGF0aCBkPSJNMTEgMTAuMjcgNyAzLjM0Ii8+PHBhdGggZD0ibTIwLjY2IDE3LTEuNzMtMSIvPjxwYXRoIGQ9Im0zLjM0IDcgMS43MyAxIi8+PHBhdGggZD0iTTE0IDEyaDgiLz48cGF0aCBkPSJNMiAxMmgyIi8+PHBhdGggZD0ibTIwLjY2IDctMS43MyAxIi8+PHBhdGggZD0ibTMuMzQgMTcgMS43My0xIi8+PHBhdGggZD0ibTE3IDMuMzQtMSAxLjczIi8+PHBhdGggZD0ibTExIDEzLjczLTQgNi45MyIvPjwvc3ZnPg==;" parent="DaTUymLXalBBTl9Ut80q-71" vertex="1">
          <mxGeometry x="13" y="16" width="18" height="18" as="geometry" />
        </mxCell>
        <mxCell id="DaTUymLXalBBTl9Ut80q-74" style="edgeStyle=orthogonalEdgeStyle;rounded=0;orthogonalLoop=1;jettySize=auto;html=1;entryX=0.5;entryY=0;entryDx=0;entryDy=0;" parent="1" source="DaTUymLXalBBTl9Ut80q-68" target="SD2X1IwTfrn5oaOJRfZy-19" edge="1">
          <mxGeometry relative="1" as="geometry" />
        </mxCell>
        <mxCell id="DaTUymLXalBBTl9Ut80q-77" value="" style="group" parent="1" vertex="1" connectable="0">
          <mxGeometry x="440" y="629" width="110" height="40" as="geometry" />
        </mxCell>
        <mxCell id="SD2X1IwTfrn5oaOJRfZy-19" value="" style="rounded=1;whiteSpace=wrap;html=1;fillColor=#f5f5f5;fontColor=#333333;strokeColor=#666666;" parent="DaTUymLXalBBTl9Ut80q-77" vertex="1">
          <mxGeometry width="110" height="40" as="geometry" />
        </mxCell>
        <mxCell id="DaTUymLXalBBTl9Ut80q-54" value="" style="shape=image;verticalLabelPosition=bottom;labelBackgroundColor=default;verticalAlign=top;aspect=fixed;imageAspect=0;image=data:image/svg+xml,PHN2ZyB4bWxucz0iaHR0cDovL3d3dy53My5vcmcvMjAwMC9zdmciIGNsYXNzPSJsdWNpZGUgbHVjaWRlLW1lc3NhZ2Utc3F1YXJlLXRleHQiIHN0cm9rZS1saW5lam9pbj0icm91bmQiIHN0cm9rZS1saW5lY2FwPSJyb3VuZCIgc3Ryb2tlLXdpZHRoPSIxIiBzdHJva2U9ImN1cnJlbnRDb2xvciIgZmlsbD0ibm9uZSIgdmlld0JveD0iMCAwIDI0IDI0IiBoZWlnaHQ9IjI0IiB3aWR0aD0iMjQiPjxwYXRoIGQ9Ik0yMSAxNWEyIDIgMCAwIDEtMiAySDdsLTQgNFY1YTIgMiAwIDAgMSAyLTJoMTRhMiAyIDAgMCAxIDIgMnoiLz48cGF0aCBkPSJNMTMgOEg3Ii8+PHBhdGggZD0iTTE3IDEySDciLz48L3N2Zz4=;" parent="DaTUymLXalBBTl9Ut80q-77" vertex="1">
          <mxGeometry x="13" y="12" width="18" height="18" as="geometry" />
        </mxCell>
        <mxCell id="DaTUymLXalBBTl9Ut80q-55" value="&lt;span style=&quot;color: rgb(51, 51, 51); font-family: Helvetica; font-size: 12px; font-style: normal; font-variant-ligatures: normal; font-variant-caps: normal; font-weight: 400; letter-spacing: normal; orphans: 2; text-align: center; text-indent: 0px; text-transform: none; widows: 2; word-spacing: 0px; -webkit-text-stroke-width: 0px; white-space: normal; text-decoration-thickness: initial; text-decoration-style: initial; text-decoration-color: initial; float: none; display: inline !important;&quot;&gt;Answer&lt;/span&gt;" style="text;html=1;align=center;verticalAlign=middle;whiteSpace=wrap;rounded=0;" parent="DaTUymLXalBBTl9Ut80q-77" vertex="1">
          <mxGeometry x="31" y="5" width="60" height="30" as="geometry" />
        </mxCell>
      </root>
    </mxGraphModel>
  </diagram>
</mxfile>
